<?xml version="1.0" encoding="iso-8859-1"?>
<!-- Generator: Adobe Illustrator 19.0.0, SVG Export Plug-In . SVG Version: 6.00 Build 0)  -->
<svg version="1.1" id="Layer_1" xmlns="http://www.w3.org/2000/svg" xmlns:xlink="http://www.w3.org/1999/xlink" x="0px" y="0px"
	 viewBox="0 0 512 512" style="enable-background:new 0 0 512 512;" xml:space="preserve">
<path style="fill:#FF4800;" d="M263.897,12.327l-43.188,399.499v77.913c0,12.295-9.966,22.261-22.261,22.261H66.149
	c-12.295,0-22.261-9.966-22.261-22.261v-77.913L0.699,12.327C-0.012,5.744,5.144,0,11.765,0h22.261H230.57h22.261
	C259.453,0,264.609,5.744,263.897,12.327z"/>
<path style="fill:#EDB311;" d="M223.115,389.565l-2.406,22.261v22.261H43.888v-22.261l-2.406-22.261H223.115z"/>
<path style="fill:#007784;" d="M264.531,12.327l-43.189,399.499h-32.125H75.38H43.255L0.066,12.327C-0.646,5.744,4.511,0,11.132,0
	h22.261h197.811h22.261C260.086,0,265.243,5.744,264.531,12.327z"/>
<path style="fill:#009299;" d="M132.299,311.652L132.299,311.652c-37.262,0-67.837-29.501-69.167-66.74L54.386,0h155.826
	l-8.747,244.912C200.134,282.151,169.561,311.652,132.299,311.652z"/>
<path style="fill:#A5DDD3;" d="M171.255,77.913c0,6.147-4.983,11.13-11.13,11.13h-55.652c-6.147,0-11.13-4.983-11.13-11.13
	s4.983-11.13,11.13-11.13h55.652C166.272,66.783,171.255,71.766,171.255,77.913z M147.728,111.304H116.87
	c-6.147,0-11.13,4.983-11.13,11.13c0,6.147,4.983,11.13,11.13,11.13h30.858c6.147,0,11.13-4.983,11.13-11.13
	C158.858,116.287,153.875,111.304,147.728,111.304z"/>
<path style="fill:#D8962B;" d="M512,144.696v333.913C512,497.051,497.051,512,478.609,512h-244.87
	c-18.442,0-33.391-14.949-33.391-33.391V144.696c0-18.442,14.949-33.391,33.391-33.391h77.913V33.391
	C311.652,14.949,326.601,0,345.043,0h22.261c18.442,0,33.391,14.949,33.391,33.391v77.913h77.913
	C497.051,111.304,512,126.254,512,144.696z"/>
<path style="fill:#EDB311;" d="M467.478,111.304v267.13c0,49.178-39.866,89.043-89.043,89.043h-44.522
	c-49.178,0-89.043-39.866-89.043-89.043v-267.13h66.783V33.391C311.652,14.95,326.601,0,345.043,0h22.261
	c18.442,0,33.391,14.95,33.391,33.391v77.913H467.478z"/>
<path style="fill:#C92B00;" d="M311.652,111.304V33.391C311.652,14.949,326.601,0,345.043,0h22.261
	c18.442,0,33.391,14.949,33.391,33.391v77.913H311.652z"/>
<path style="fill:#841C00;" d="M400.696,111.304h-89.043V77.913h89.043V111.304z"/>
<path style="fill:#FF4800;" d="M434.087,294.957h-23.381c-1.446-7.095-4.252-13.698-8.124-19.537l16.555-16.555
	c4.346-4.346,4.346-11.394,0-15.742c-4.346-4.346-11.394-4.346-15.742,0l-16.555,16.555c-5.839-3.871-12.442-6.678-19.537-8.124
	v-23.379c0-6.147-4.983-11.13-11.13-11.13c-6.147,0-11.13,4.983-11.13,11.13v23.381c-7.095,1.446-13.698,4.253-19.537,8.124
	l-16.555-16.555c-4.346-4.346-11.394-4.346-15.742,0c-4.346,4.346-4.346,11.394,0,15.742l16.555,16.555
	c-3.871,5.839-6.678,12.443-8.124,19.537h-23.378c-6.147,0-11.13,4.983-11.13,11.13c0,6.147,4.983,11.13,11.13,11.13h23.381
	c1.446,7.095,4.252,13.698,8.124,19.537l-16.555,16.555c-4.346,4.346-4.346,11.394,0,15.742c2.174,2.174,5.022,3.26,7.87,3.26
	c2.848,0,5.698-1.086,7.87-3.26l16.555-16.555c5.839,3.871,12.442,6.678,19.537,8.123V384c0,6.147,4.983,11.13,11.13,11.13
	c6.147,0,11.13-4.983,11.13-11.13v-23.381c7.095-1.446,13.698-4.252,19.537-8.123l16.555,16.555c2.174,2.174,5.022,3.26,7.87,3.26
	c2.848,0,5.698-1.086,7.87-3.26c4.346-4.346,4.346-11.394,0-15.742l-16.555-16.555c3.871-5.839,6.678-12.443,8.124-19.537h23.38
	c6.147,0,11.13-4.983,11.13-11.13C445.217,299.94,440.234,294.957,434.087,294.957z M356.174,339.478
	c-18.412,0-33.391-14.979-33.391-33.391s14.979-33.391,33.391-33.391s33.391,14.979,33.391,33.391S374.586,339.478,356.174,339.478z
	"/>
<g>
</g>
<g>
</g>
<g>
</g>
<g>
</g>
<g>
</g>
<g>
</g>
<g>
</g>
<g>
</g>
<g>
</g>
<g>
</g>
<g>
</g>
<g>
</g>
<g>
</g>
<g>
</g>
<g>
</g>
</svg>
